<?xml version="1.0" encoding="utf-8"?>
<!-- Generator: Adobe Illustrator 19.2.0, SVG Export Plug-In . SVG Version: 6.00 Build 0)  -->
<svg version="1.1" id="Layer_1" xmlns="http://www.w3.org/2000/svg" xmlns:xlink="http://www.w3.org/1999/xlink" x="0px" y="0px"
	 viewBox="0 0 826.256 230.329" enable-background="new 0 0 826.256 230.329" xml:space="preserve">
<g>
	<path fill="#2E2F33" d="M765.06,84.258h-56.537v8.947h47.212c7.535,0.089,10.603,1.698,10.998,4.883l0.061,14.312l-41.282,0.02
		c-13.487,0.008-21.573,2.816-21.346,8.156l-0.014,18.468c1.007,8.71,13.985,9.745,28.97,9.616l41.174-0.014
		c13.562,0.115,21.148-2.842,21.919-9.739l-0.089-42.827C795.798,84.358,777.305,84.387,765.06,84.258z M756.68,139.875
		l-10.438,0.031c-7.602,0.011-13.182-2.313-13.137-7.269l-0.031-7.057c0-3.06,4.411-4.112,10.81-4.234h22.924l0.106,12.136
		C766.853,137.783,763.208,139.69,756.68,139.875z"/>
	<path fill="#2E2F33" d="M686.181,53.546c-13.084,0.151-19.567,4.083-19.475,11.025l-0.062,84.217h29.413l-0.006-95.242H686.181z"/>
	<polygon fill="#2E2F33" points="802.516,79.668 806.684,79.668 806.684,90.822 808.353,90.822 808.353,79.668 812.538,79.668 
		812.538,78.172 802.516,78.172 	"/>
	<path fill="#2E2F33" d="M824.002,78.172l-3.023,8.807c-0.302,0.889-0.526,1.566-0.674,2.028c-0.129-0.426-0.319-1.041-0.599-1.877
		l-2.992-8.958h-2.52v12.65h1.628v-10.76l3.636,10.76h1.513l3.678-10.577v10.577h1.608v-12.65H824.002z"/>
	<path fill="#2E2F33" d="M261.266,94.011l0.089,42.827c0.341,11.716,18.823,11.685,31.06,11.834h56.551v-8.947h-47.217
		c-7.527-0.101-10.609-1.706-11-4.886l-0.179-35.395c0.064-4.299,3.7-6.214,10.237-6.399l48.16-0.024v-8.756l-65.78,0.007
		C269.626,84.154,262.03,87.119,261.266,94.011z"/>
	<path fill="#2E2F33" d="M523.549,84.258l-41.182,0.011c-13.56-0.115-21.156,2.85-21.92,9.742l0.089,42.827
		c0.341,11.716,18.823,11.685,31.06,11.834h56.551v-8.947H500.93c-7.527-0.101-10.609-1.706-11-4.887l-0.056-14.317l41.285-0.025
		c13.487-0.008,21.573-2.805,21.344-8.15l0.006-18.479C551.515,85.156,538.529,84.129,523.549,84.258z M512.783,111.57h-22.935
		l-0.098-12.128c0.064-4.299,3.7-6.214,10.237-6.399l10.43-0.028c7.607-0.009,13.188,2.307,13.14,7.26l0.025,7.065
		C523.582,110.395,519.188,111.444,512.783,111.57z"/>
	<path fill="#2E2F33" d="M649.9,84.258h-17.074l-38.771,26.605l-0.034-46.291c0.092-6.942-6.391-10.875-19.475-11.025h-9.87
		l-0.006,95.242h29.413l-0.02-27.564l1.118-0.74l18.702,21.807c3.406,3.972,8.378,6.258,13.611,6.258h30.832l-38.22-44.566
		L649.9,84.258z"/>
	<path fill="#2E2F33" d="M418.27,139.485h-7.426l-19.311-46.923c-2.006-4.874-6.77-8.043-12.041-8.01l-23.636,0.16l20.514,53.022
		c2.324,6.006,7.83,10.38,14.257,10.781c0.371,0.023,27.902,0.023,28.273,0c6.428-0.401,11.934-4.775,14.257-10.781l20.514-53.022
		L440.9,84.497L418.27,139.485z"/>
	<path fill="#2E2F33" d="M53.859,95.817c0,39.813,16.554,74.935,43.294,95.817c-15.805-23.372-25.783-57.632-25.783-95.817
		S81.348,23.372,97.153,0C70.413,20.882,53.859,56.004,53.859,95.817z"/>
	<path fill="#2E2F33" d="M57.759,26.391C36.608,41.521,22.722,66.97,22.722,95.817c0,28.847,13.885,54.296,35.037,69.426
		c-12.502-16.935-20.395-41.758-20.395-69.426S45.257,43.325,57.759,26.391z"/>
	<path fill="#2E2F33" d="M0,95.817c0,18.602,8.671,35.012,21.88,44.768c-7.807-10.92-12.737-26.927-12.737-44.768
		c0-17.841,4.929-33.849,12.737-44.769C8.671,60.805,0,77.215,0,95.817z"/>
	<path fill="#2E2F33" d="M113.665,38.695c15.805,23.372,25.783,57.632,25.783,95.817s-9.978,72.445-25.783,95.817
		c26.74-20.882,43.294-56.004,43.294-95.817C156.959,94.699,140.405,59.577,113.665,38.695z"/>
	<path fill="#2E2F33" d="M153.059,65.085c12.502,16.935,20.395,41.758,20.395,69.427s-7.893,52.492-20.395,69.426
		c21.152-15.131,35.037-40.579,35.037-69.426C188.095,105.665,174.21,80.216,153.059,65.085z"/>
	<path fill="#2E2F33" d="M188.937,89.743c7.807,10.92,12.737,26.927,12.737,44.768s-4.929,33.848-12.737,44.768
		c13.209-9.757,21.88-26.167,21.88-44.768C210.818,115.91,202.147,99.5,188.937,89.743z"/>
</g>
</svg>
