<?xml version="1.0" encoding="utf-8"?>
<!-- Generator: Adobe Illustrator 19.2.0, SVG Export Plug-In . SVG Version: 6.00 Build 0)  -->
<svg version="1.1" id="Layer_1" xmlns="http://www.w3.org/2000/svg" xmlns:xlink="http://www.w3.org/1999/xlink" x="0px" y="0px"
	 viewBox="0 0 16 16" enable-background="new 0 0 16 16" xml:space="preserve">
<g>
	<path fill="#2E2F33" d="M16,9V7h-2.09c-0.153-0.911-0.509-1.751-1.023-2.473l1.477-1.477L12.95,1.636l-1.477,1.477
		C10.751,2.599,9.911,2.243,9,2.09V0H7v2.09C6.089,2.243,5.249,2.599,4.527,3.113L3.05,1.636L1.636,3.05l1.477,1.477
		C2.599,5.249,2.243,6.089,2.09,7H0v2h2.09c0.153,0.911,0.509,1.751,1.023,2.473L1.636,12.95l1.414,1.414l1.477-1.477
		C5.249,13.401,6.089,13.757,7,13.91V16h2v-2.09c0.911-0.153,1.751-0.509,2.473-1.023l1.477,1.477l1.414-1.414l-1.477-1.477
		c0.514-0.722,0.87-1.562,1.023-2.473H16z M12.3,8c0,2.371-1.929,4.3-4.3,4.3S3.7,10.371,3.7,8S5.629,3.7,8,3.7S12.3,5.629,12.3,8z"
		/>
	<circle fill="#2E2F33" cx="8" cy="8" r="2"/>
</g>
</svg>
