<?xml version="1.0" encoding="utf-8"?>
<!-- Generator: Adobe Illustrator 19.2.0, SVG Export Plug-In . SVG Version: 6.00 Build 0)  -->
<svg version="1.1" id="Layer_1" xmlns="http://www.w3.org/2000/svg" xmlns:xlink="http://www.w3.org/1999/xlink" x="0px" y="0px"
	 viewBox="0 0 44 38" style="enable-background:new 0 0 44 38;" xml:space="preserve">
<style type="text/css">
	.st0{fill:#FFE17F;}
	.st1{fill:#2E2F33;}
	.st2{fill:#F8F8F8;}
</style>
<g>
	<path class="st0" d="M21.5,33.5c-8.3,0-15-6.7-15-15s6.7-15,15-15s15,6.7,15,15S29.8,33.5,21.5,33.5z"/>
	<path class="st1" d="M21.5,4c8,0,14.5,6.5,14.5,14.5S29.5,33,21.5,33S7,26.5,7,18.5S13.5,4,21.5,4 M21.5,3C12.9,3,6,9.9,6,18.5
		S12.9,34,21.5,34S37,27.1,37,18.5S30.1,3,21.5,3L21.5,3z"/>
</g>
<g>
	<path class="st2" d="M21.5,27.5c-5,0-9-4-9-9s4-9,9-9s9,4,9,9S26.5,27.5,21.5,27.5z"/>
	<path class="st1" d="M21.5,10c4.7,0,8.5,3.8,8.5,8.5S26.2,27,21.5,27S13,23.2,13,18.5S16.8,10,21.5,10 M21.5,9
		c-5.2,0-9.5,4.3-9.5,9.5s4.3,9.5,9.5,9.5s9.5-4.3,9.5-9.5S26.7,9,21.5,9L21.5,9z"/>
</g>
<g>
	<path class="st0" d="M2.5,31.5c-0.6,0-1-0.4-1-1v-16h2v16C3.5,31.1,3.1,31.5,2.5,31.5z"/>
	<path class="st1" d="M3,15v15.5C3,30.8,2.8,31,2.5,31S2,30.8,2,30.5V15H3 M4,14H1v16.5C1,31.3,1.7,32,2.5,32S4,31.3,4,30.5V14L4,14
		z"/>
</g>
<path class="st2" d="M2,15.5c-1,0-1.5-1.2-1.5-1.5V5.5h4V14c0,0.3-0.4,1.5-1.5,1.5H2z"/>
<path class="st1" d="M4,5v1l0,0v8c0,0.1-0.3,1-1,1H2c-0.7,0-1-0.9-1-1V6V5H0v9c0,0.6,0.6,2,2,2h1c1.4,0,2-1.5,2-2V5H4z"/>
<rect x="2" y="5" class="st1" width="1" height="8"/>
<g>
	<path class="st0" d="M41.5,31.5c-0.6,0-1-0.4-1-1v-16h2v16C42.5,31.1,42.1,31.5,41.5,31.5z"/>
	<path class="st1" d="M42,15v15.5c0,0.3-0.2,0.5-0.5,0.5S41,30.8,41,30.5V15H42 M43,14h-3v16.5c0,0.8,0.7,1.5,1.5,1.5
		s1.5-0.7,1.5-1.5V14L43,14z"/>
</g>
<g>
	<path class="st2" d="M42.5,20.4c-3.8-0.9-4-5.5-4-6.4c0-4.9,2.7-7.3,4-8.1V20.4z"/>
	<g>
		<path class="st1" d="M42,6.8v12.9c-2.8-1.2-3-4.9-3-5.7C39,10.1,40.7,7.9,42,6.8 M43,5c0,0-5,2.1-5,9c0,2.2,0.8,6.5,5,7V5L43,5z"
			/>
	</g>
</g>
<g>
	<path class="st2" d="M21.5,28.5c-5.5,0-10-4.5-10-10s4.5-10,10-10c5.5,0,10,4.5,10,10S27,28.5,21.5,28.5z"/>
	<path class="st1" d="M21.5,9c5.2,0,9.5,4.3,9.5,9.5S26.7,28,21.5,28S12,23.7,12,18.5S16.3,9,21.5,9 M21.5,8C15.7,8,11,12.7,11,18.5
		S15.7,29,21.5,29S32,24.3,32,18.5S27.3,8,21.5,8L21.5,8z"/>
</g>
</svg>
