<?xml version="1.0" encoding="utf-8"?>
<!-- Generator: Adobe Illustrator 19.2.0, SVG Export Plug-In . SVG Version: 6.00 Build 0)  -->
<svg version="1.1" id="Layer_1" xmlns="http://www.w3.org/2000/svg" xmlns:xlink="http://www.w3.org/1999/xlink" x="0px" y="0px"
	 viewBox="0 0 44 38" style="enable-background:new 0 0 44 38;" xml:space="preserve">
<style type="text/css">
	.st0{fill:#2E2F33;}
	.st1{fill:#FFFFFF;}
	.st2{fill:#FFE17F;}
	.st3{fill:none;stroke:#2E2F33;stroke-linecap:round;stroke-linejoin:round;stroke-miterlimit:10;}
	.st4{fill:#FFFFFF;stroke:#2E2F33;stroke-linecap:round;stroke-linejoin:round;stroke-miterlimit:10;}
	.st5{fill:none;stroke:#231F20;stroke-linecap:round;stroke-linejoin:round;stroke-miterlimit:10;}
</style>
<g>
	<path class="st0" d="M38.2,16c0.4,0,0.8,0.3,0.8,0.8v3.5c0,0.4-0.3,0.8-0.8,0.8H35v-5H38.2 M38.2,15H34v7h4.2c1,0,1.8-0.8,1.8-1.8
		v-3.5C40,15.8,39.2,15,38.2,15L38.2,15z"/>
</g>
<g>
	<path class="st0" d="M10,16v5H6.8C6.4,21,6,20.6,6,20.2v-3.4C6,16.4,6.4,16,6.8,16H10 M11,15H6.8c-1,0-1.8,0.8-1.8,1.8v3.4
		c0,1,0.8,1.8,1.8,1.8H11V15L11,15z"/>
</g>
<g>
	<g>
		<path class="st0" d="M22.5,9C30.9,9,36,11.6,36,13.5S30.9,18,22.5,18S9,15.4,9,13.5S14.1,9,22.5,9 M22.5,8C14.5,8,8,10.5,8,13.5
			S14.5,19,22.5,19S37,16.5,37,13.5S30.5,8,22.5,8L22.5,8z"/>
	</g>
</g>
<g>
	<path class="st2" d="M12,31.5c-1.9,0-3.5-1.6-3.5-3.5V13.5h28V28c0,1.9-1.6,3.5-3.5,3.5H12z"/>
	<path class="st0" d="M36,14v14c0,1.7-1.4,3-3,3H12c-1.7,0-3-1.4-3-3V14H36 M37,13H8v15c0,2.2,1.8,4,4,4H33c2.2,0,4-1.8,4-4V13
		L37,13z"/>
</g>
<rect x="11" y="34" class="st0" width="23" height="1"/>
<g>
	<path class="st0" d="M22.5,5C23.3,5,24,5.7,24,6.5S23.3,8,22.5,8S21,7.3,21,6.5S21.7,5,22.5,5 M22.5,4C21.1,4,20,5.1,20,6.5
		S21.1,9,22.5,9S25,7.9,25,6.5S23.9,4,22.5,4L22.5,4z"/>
</g>
</svg>
