<?xml version="1.0" encoding="utf-8"?>
<!-- Generator: Adobe Illustrator 19.2.0, SVG Export Plug-In . SVG Version: 6.00 Build 0)  -->
<svg version="1.1" id="Layer_1" xmlns="http://www.w3.org/2000/svg" xmlns:xlink="http://www.w3.org/1999/xlink" x="0px" y="0px"
	 viewBox="0 0 44 38" style="enable-background:new 0 0 44 38;" xml:space="preserve">
<style type="text/css">
	.st0{fill:#2E2F33;}
	.st1{fill:#FFFFFF;}
	.st2{fill:#FFE17F;}
	.st3{fill:none;stroke:#2E2F33;stroke-linecap:round;stroke-linejoin:round;stroke-miterlimit:10;}
	.st4{fill:#FFFFFF;stroke:#2E2F33;stroke-linecap:round;stroke-linejoin:round;stroke-miterlimit:10;}
	.st5{fill:none;stroke:#231F20;stroke-linecap:round;stroke-linejoin:round;stroke-miterlimit:10;}
</style>
<g>
	<path class="st0" d="M18.2,4L18.2,4c1.8,0,3.5,0.5,5.1,1.5c0.9,0.5,1.5,1.2,2.3,1.9c1.3,1.3,2.6,2.6,4.9,2.9
		c3.8,0.5,6.3,2.3,7.2,4.9c0.9,2.6,0,5.9-2.4,8.4c-0.9,0.9-1.7,1.8-2.4,2.6c-1.9,2.1-3.4,3.8-5.8,5.5c-2.2,1.5-4.7,2.3-8,2.3
		c-6.6,0-8.4-4.8-8.7-8.7c-0.2-2.4-0.4-4.8-2.3-7.9c-1.4-2.2-1.3-4.9,0.1-7.4C10.1,6.5,14.2,4,18.2,4 M18.2,3
		c-7.8,0-15.1,8.2-11,14.8c1.7,2.8,1.9,5,2.1,7.5C9.8,30.8,12.6,35,19,35c3.7,0,6.4-1,8.5-2.5c3.4-2.4,5.1-4.8,8.4-8.2
		C41,19,40.1,10.8,30.6,9.4c-3.2-0.5-4.2-3.1-6.8-4.7C22,3.5,20.1,3,18.2,3L18.2,3z"/>
</g>
<path class="st3" d="M11,13c1-2.6,3.7-4.7,5.5-5"/>
<g>
	<circle class="st2" cx="25" cy="20" r="6.5"/>
	<g>
		<path class="st0" d="M25,14c3.3,0,6,2.7,6,6s-2.7,6-6,6s-6-2.7-6-6S21.7,14,25,14 M25,13c-3.9,0-7,3.1-7,7s3.1,7,7,7s7-3.1,7-7
			S28.9,13,25,13L25,13z"/>
	</g>
</g>
</svg>
