<?xml version="1.0" encoding="utf-8"?>
<!-- Generator: Adobe Illustrator 19.2.0, SVG Export Plug-In . SVG Version: 6.00 Build 0)  -->
<svg version="1.1" id="Layer_1" xmlns="http://www.w3.org/2000/svg" xmlns:xlink="http://www.w3.org/1999/xlink" x="0px" y="0px"
	 viewBox="0 0 44 38" style="enable-background:new 0 0 44 38;" xml:space="preserve">
<style type="text/css">
	.st0{fill:#93959C;}
	.st1{fill:#F8F8F8;}
	.st2{fill:none;stroke:#2E2F33;stroke-linecap:round;stroke-linejoin:round;stroke-miterlimit:10;}
	.st3{fill:#FFE17F;}
	.st4{fill:none;stroke:#93959C;stroke-linecap:round;stroke-linejoin:round;stroke-miterlimit:10;}
	.st5{fill:#FFFFFF;stroke:#93959C;stroke-linecap:round;stroke-linejoin:round;stroke-miterlimit:10;}
	.st6{fill:none;stroke:#231F20;stroke-linecap:round;stroke-linejoin:round;stroke-miterlimit:10;}
</style>
<g>
	<g>
		<path class="st0" d="M37.5,5C38.3,5,39,5.7,39,6.5c0,0.1,0,0.2-0.1,0.4c-0.1,0.3,0,0.7,0.3,1c0.2,0.2,0.4,0.3,0.7,0.3
			c0.1,0,0.2,0,0.2,0c0.1,0,0.2,0,0.3,0c0.8,0,1.5,0.7,1.5,1.5c0,0.8-0.7,1.5-1.5,1.5c-0.1,0-0.5,0-1.3-0.5
			c-0.2-0.1-0.3-0.1-0.5-0.1c-0.3,0-0.5,0.1-0.7,0.3L33,15.6L31.4,14l4.9-4.9c0.3-0.3,0.4-0.8,0.2-1.2C36,7,36,6.6,36,6.5
			C36,5.7,36.7,5,37.5,5 M37.5,4C36.1,4,35,5.1,35,6.5c0,0.6,0.3,1.2,0.7,1.8L30,14l3,3l5.7-5.7c0.6,0.4,1.3,0.7,1.8,0.7
			c1.4,0,2.5-1.1,2.5-2.5c0-1.4-1.1-2.5-2.5-2.5c-0.2,0-0.4,0-0.6,0.1C40,6.9,40,6.7,40,6.5C40,5.1,38.9,4,37.5,4L37.5,4z"/>
	</g>
</g>
<g>
	<g>
		<path class="st0" d="M38.4,32l-1,2H5.7l-1-2H38.4 M40,31H3l2.1,4h32.9L40,31L40,31z"/>
	</g>
</g>
<g>
	<path class="st1" d="M5.9,31.5c-0.3-1-0.4-2.1-0.4-3.1c0-7.9,7.7-14.9,16.5-14.9c2.1,0,3.7,1.1,5.3,2.3c0.8,0.6,1.6,1.1,2.4,1.6
		c0.6,0.3,1.1,0.8,1.6,1.3c0.7,0.8,1.5,1.5,2.6,1.7c1.5,0.3,3.3,2.3,4.1,4.6c0.5,1.4,0.9,4.1-1.2,6.4H5.9z"/>
	<g>
		<path class="st0" d="M22,14c1.9,0,3.4,1.1,5,2.3c0.8,0.6,1.6,1.2,2.5,1.6c0.5,0.3,1,0.7,1.5,1.2c0.8,0.8,1.6,1.6,2.8,1.9
			c1.2,0.2,2.9,1.9,3.7,4.3c0.4,1.3,0.8,3.7-0.9,5.7H6.3C6.1,30.1,6,29.2,6,28.4C6,20.7,13.5,14,22,14 M22,13c-9.4,0-17,7.4-17,15.4
			c0,1.2,0.2,2.4,0.6,3.6H37c4.3-4.4,0.2-11.4-3-12c-1.6-0.3-2.5-2.2-4-3C27.4,15.6,25.3,13,22,13L22,13z"/>
	</g>
</g>
<g>
	<path class="st1" d="M24.6,28.9c-0.9,0-1.7-0.1-2.1-0.4c-2.2-1.4-3-6-3-6.1c0-0.3,0.5-9,11.1-9l0.2,0c0.5,0.4,2.2,2.2,2.7,2.7
		c0,5-1.7,10.7-6.1,12.3C26.7,28.8,25.6,28.9,24.6,28.9z"/>
	<g>
		<path class="st0" d="M30.6,14C30.6,14,30.6,14,30.6,14L30.6,14L30.6,14C30.6,14,30.6,14,30.6,14c0.6,0.5,1.8,1.8,2.4,2.4
			c-0.1,4.7-1.6,10.2-5.7,11.7c-0.7,0.2-1.7,0.4-2.7,0.4c-1,0-1.6-0.2-1.8-0.3c-1.7-1-2.5-4.3-2.7-5.6C20.1,21.5,20.9,14,30.6,14
			L30.6,14 M30.6,13C19.4,13,19,22.6,19,22.6s0.7,4.9,3.2,6.4c0.5,0.3,1.4,0.5,2.3,0.5c1.1,0,2.2-0.2,3-0.5c5.1-1.8,6.4-8.5,6.4-13
			c0,0-2.8-3-3-3C30.9,13,30.7,13,30.6,13L30.6,13z"/>
	</g>
</g>
<rect x="18" y="22" class="st1" width="9" height="8"/>
</svg>
