<?xml version="1.0" encoding="utf-8"?>
<!-- Generator: Adobe Illustrator 19.2.0, SVG Export Plug-In . SVG Version: 6.00 Build 0)  -->
<svg version="1.1" id="Layer_1" xmlns="http://www.w3.org/2000/svg" xmlns:xlink="http://www.w3.org/1999/xlink" x="0px" y="0px"
	 viewBox="0 0 44 38" style="enable-background:new 0 0 44 38;" xml:space="preserve">
<style type="text/css">
	.st0{fill:#93959C;}
	.st1{fill:#F8F8F8;}
	.st2{fill:none;stroke:#2E2F33;stroke-linecap:round;stroke-linejoin:round;stroke-miterlimit:10;}
	.st3{fill:#FFE17F;}
	.st4{fill:none;stroke:#93959C;stroke-linecap:round;stroke-linejoin:round;stroke-miterlimit:10;}
	.st5{fill:#FFFFFF;stroke:#93959C;stroke-linecap:round;stroke-linejoin:round;stroke-miterlimit:10;}
	.st6{fill:none;stroke:#231F20;stroke-linecap:round;stroke-linejoin:round;stroke-miterlimit:10;}
</style>
<g>
	<path class="st1" d="M13.5,34.5V32c0-0.2-0.1-0.4-0.3-0.5c-4.7-2-8.8-7.6-9.6-13h36.9c-0.8,5.4-4.9,11.1-9.6,13
		c-0.2,0.1-0.3,0.3-0.3,0.5v2.5H13.5z"/>
	<g>
		<path class="st0" d="M39.8,19c-1,5.1-4.8,10.2-9.2,12.1C30.2,31.2,30,31.6,30,32v2h-8h-8v-2c0-0.4-0.2-0.8-0.6-0.9
			C9,29.2,5.1,24.1,4.2,19H22H39.8 M41,18L41,18L41,18z M41,18H22H3c0.6,5.7,4.8,11.8,10,14v3h9h9v-3C36.2,29.8,40.4,23.7,41,18
			L41,18z"/>
	</g>
</g>
<path class="st4" d="M16,15c3.1-4.5-2.5-5.6,0.9-10"/>
<path class="st4" d="M27,15c3.1-4.5-2.6-5.6,0.9-10"/>
<rect x="13" y="31" class="st0" width="18" height="1"/>
<path class="st4" d="M21.5,16c4-5.8-3.3-7.2,1.2-13"/>
</svg>
