<?xml version="1.0" encoding="utf-8"?>
<!-- Generator: Adobe Illustrator 19.2.0, SVG Export Plug-In . SVG Version: 6.00 Build 0)  -->
<svg version="1.1" id="Layer_1" xmlns="http://www.w3.org/2000/svg" xmlns:xlink="http://www.w3.org/1999/xlink" x="0px" y="0px"
	 viewBox="0 0 44 38" style="enable-background:new 0 0 44 38;" xml:space="preserve">
<style type="text/css">
	.st0{fill:#93959C;}
	.st1{fill:#F8F8F8;}
	.st2{fill:none;stroke:#2E2F33;stroke-linecap:round;stroke-linejoin:round;stroke-miterlimit:10;}
	.st3{fill:#FFE17F;}
	.st4{fill:none;stroke:#93959C;stroke-linecap:round;stroke-linejoin:round;stroke-miterlimit:10;}
	.st5{fill:#FFFFFF;stroke:#93959C;stroke-linecap:round;stroke-linejoin:round;stroke-miterlimit:10;}
	.st6{fill:none;stroke:#231F20;stroke-linecap:round;stroke-linejoin:round;stroke-miterlimit:10;}
</style>
<g>
	<g>
		<path class="st0" d="M41,16v1h-4v-1H41 M42,15h-6v3h6V15L42,15z"/>
	</g>
</g>
<g>
	<g>
		<path class="st0" d="M9,16v1H4v-1H9 M10,15H3v3h7V15L10,15z"/>
	</g>
</g>
<g>
	<g>
		<path class="st0" d="M22.5,8C31.2,8,37,11,37,13c0,1.9-5.8,4-14.5,4S8,14.9,8,13C8,11,13.8,8,22.5,8 M22.5,7C13.9,7,7,10,7,13
			s6.9,5,15.5,5S38,16,38,13S31.1,7,22.5,7L22.5,7z"/>
	</g>
</g>
<g>
	<path class="st1" d="M11,31.5c-1.9,0-3.5-1.6-3.5-3.5V13.5h30v13.4c0,2.5-2.1,4.6-4.6,4.6H11z"/>
	<g>
		<path class="st0" d="M37,14v12.9c0,2.3-1.8,4.1-4.1,4.1H11c-1.7,0-3-1.4-3-3V14H37 M38,13H7v15c0,2.2,1.8,4,4,4h21.9
			c2.8,0,5.1-2.3,5.1-5.1V13L38,13z"/>
	</g>
</g>
<rect x="10" y="34" class="st0" width="25" height="1"/>
<g>
	<g>
		<path class="st0" d="M22.5,4C23.3,4,24,4.7,24,5.5S23.3,7,22.5,7S21,6.3,21,5.5S21.7,4,22.5,4 M22.5,3C21.1,3,20,4.1,20,5.5
			S21.1,8,22.5,8S25,6.9,25,5.5S23.9,3,22.5,3L22.5,3z"/>
	</g>
</g>
</svg>
