<?xml version="1.0" encoding="utf-8"?>
<!-- Generator: Adobe Illustrator 19.2.0, SVG Export Plug-In . SVG Version: 6.00 Build 0)  -->
<svg version="1.1" id="Layer_1" xmlns="http://www.w3.org/2000/svg" xmlns:xlink="http://www.w3.org/1999/xlink" x="0px" y="0px"
	 viewBox="0 0 44 38" style="enable-background:new 0 0 44 38;" xml:space="preserve">
<style type="text/css">
	.st0{fill:#93959C;}
	.st1{fill:#F8F8F8;}
	.st2{fill:none;stroke:#2E2F33;stroke-linecap:round;stroke-linejoin:round;stroke-miterlimit:10;}
	.st3{fill:#FFE17F;}
	.st4{fill:none;stroke:#93959C;stroke-linecap:round;stroke-linejoin:round;stroke-miterlimit:10;}
	.st5{fill:#FFFFFF;stroke:#93959C;stroke-linecap:round;stroke-linejoin:round;stroke-miterlimit:10;}
	.st6{fill:none;stroke:#231F20;stroke-linecap:round;stroke-linejoin:round;stroke-miterlimit:10;}
</style>
<g>
	<path class="st1" d="M16,13.5c-0.9,0-2.1-1.5-2.3-3.2c-0.1-1.1,0.2-2.4,2.4-2.8c1.7-0.3,2.2-1.2,2.2-1.8c0.1-0.8-0.3-1.6-0.9-2.2
		H23c2.4,0,4.5,2.5,4.5,4.5c0,2.1-1.7,5.5-3.5,5.5H16z"/>
	<path class="st0" d="M23,4c2.1,0,4,2.2,4,4c0,2-1.6,5-3,5h-8c-0.5,0-1.6-1.2-1.8-2.7c-0.1-1.3,0.5-2,2-2.3c2.1-0.4,2.6-1.6,2.6-2.3
		c0.1-0.6-0.1-1.2-0.4-1.7H23 M23,3h-7c1.4,0.6,3.3,3.4,0,4c-5,0.9-2.2,7,0,7h8c2.2,0,4-3.8,4-6v0C28,5.8,25.8,3,23,3L23,3z"/>
</g>
<g>
	<path class="st0" d="M30.8,22l-1.7,12H12.9l-1.7-12H30.8 M32,21L32,21L32,21z M32,21H10l2,14h18L32,21L32,21z"/>
</g>
<g>
	<path class="st1" d="M11.5,21.5c-1.7,0-3-1.3-3-3s1.3-3,3-3h19c1.7,0,3,1.3,3,3s-1.3,3-3,3H11.5z"/>
	<path class="st0" d="M30.5,16c1.4,0,2.5,1.1,2.5,2.5S31.9,21,30.5,21h-19C10.1,21,9,19.9,9,18.5s1.1-2.5,2.5-2.5H30.5 M30.5,15h-19
		C9.6,15,8,16.6,8,18.5S9.6,22,11.5,22h19c1.9,0,3.5-1.6,3.5-3.5S32.4,15,30.5,15L30.5,15z"/>
</g>
<g>
	<path class="st1" d="M13,15.5c-1.4,0-2.5-1.1-2.5-2.5s1.1-2.5,2.5-2.5h15c1.4,0,2.5,1.1,2.5,2.5s-1.1,2.5-2.5,2.5H13z"/>
	<path class="st0" d="M28,11c1.1,0,2,0.9,2,2s-0.9,2-2,2H13c-1.1,0-2-0.9-2-2s0.9-2,2-2H28 M28,10H13c-1.7,0-3,1.3-3,3s1.3,3,3,3h15
		c1.7,0,3-1.3,3-3S29.7,10,28,10L28,10z"/>
</g>
<rect x="20" y="14" class="st1" width="5" height="3"/>
<rect x="17" y="9" class="st1" width="3" height="3"/>
</svg>
