<?xml version="1.0" encoding="utf-8"?>
<!-- Generator: Adobe Illustrator 19.2.0, SVG Export Plug-In . SVG Version: 6.00 Build 0)  -->
<svg version="1.1" id="Layer_1" xmlns="http://www.w3.org/2000/svg" xmlns:xlink="http://www.w3.org/1999/xlink" x="0px" y="0px"
	 viewBox="0 0 44 38" style="enable-background:new 0 0 44 38;" xml:space="preserve">
<style type="text/css">
	.st0{fill:#93959C;}
	.st1{fill:#F8F8F8;}
	.st2{fill:none;stroke:#2E2F33;stroke-linecap:round;stroke-linejoin:round;stroke-miterlimit:10;}
	.st3{fill:#FFE17F;}
	.st4{fill:none;stroke:#93959C;stroke-linecap:round;stroke-linejoin:round;stroke-miterlimit:10;}
	.st5{fill:#FFFFFF;stroke:#93959C;stroke-linecap:round;stroke-linejoin:round;stroke-miterlimit:10;}
	.st6{fill:none;stroke:#231F20;stroke-linecap:round;stroke-linejoin:round;stroke-miterlimit:10;}
</style>
<g>
	<path class="st1" d="M22.1,18.5c-0.1-3.2,1-8.2,2.7-10.1c0.4-0.4,0.8-0.7,1.2-0.7c0.7,0,1.3,0.8,1.8,1.4c0.1,0.1,0.2,0.2,0.4,0.2
		c0,0,0,0,0.1,0c0.1,0,0.2,0,0.3-0.1c1-0.9,2-1.4,2.9-1.4c0.8,0,1.4,0.4,1.7,1c0.5,0.9,0.4,2.1-0.2,3.1c-0.1,0.1-0.1,0.3,0,0.5
		s0.2,0.3,0.4,0.3c1.1,0.2,1.8,0.6,2.1,1.3c0.4,1.1-0.4,2.9-2,4.5H22.1z"/>
	<g>
		<path class="st0" d="M26,8.2c0.4,0,0.9,0.4,1.4,1.2c0.2,0.2,0.4,0.4,0.7,0.4c0,0,0.1,0,0.1,0c0.2,0,0.5-0.1,0.7-0.3
			c1.2-1.1,2-1.3,2.6-1.3c0.7,0,1.1,0.4,1.3,0.8c0.4,0.7,0.4,1.8-0.2,2.6c-0.2,0.3-0.2,0.6,0,0.9c0.1,0.3,0.4,0.5,0.8,0.6
			c0.9,0.1,1.5,0.4,1.7,0.9c0.3,0.9-0.4,2.5-1.7,3.9H22.6c0-3.3,1.2-7.7,2.6-9.3C25.4,8.5,25.7,8.2,26,8.2 M26,7.2
			c-2.7,0-4.7,7.5-4.3,11.8h12c2.6-2.6,3.8-6.2-0.2-6.8c1.3-2.2,0.3-4.9-2-4.9c-0.9,0-2,0.4-3.2,1.5C27.4,7.7,26.7,7.2,26,7.2
			L26,7.2z"/>
	</g>
</g>
<g>
	<path class="st1" d="M9.5,18.5c-1.7-2.1-2.5-5.7-1.6-7.7C8.3,9.9,9,9.4,10,9.4c0.3,0,0.7,0,1.1,0.1c0,0,0.1,0,0.1,0
		c0.1,0,0.3-0.1,0.4-0.2c0.1-0.1,0.2-0.3,0.1-0.5c-0.3-1-0.2-2,0.4-2.8c0.6-0.9,1.7-1.4,2.7-1.4c1.3,0,2.3,0.9,2.8,2.5
		c0,0.2,0.2,0.3,0.3,0.3c0,0,0.1,0,0.1,0c0.1,0,0.2,0,0.3-0.1c0.6-0.6,1.3-0.9,1.9-0.9c1,0,2,0.8,2.6,2.1c1.2,2.4,1.4,6.5-0.9,9.9
		H9.5z"/>
	<g>
		<path class="st0" d="M14.7,5.1c1.1,0,1.9,0.8,2.3,2.2c0.1,0.3,0.4,0.6,0.7,0.7c0.1,0,0.2,0,0.3,0c0.2,0,0.5-0.1,0.7-0.3
			C19.2,7.3,19.7,7,20.2,7c0.8,0,1.6,0.7,2.2,1.9c1.2,2.3,1.2,6.1-0.8,9.1h-12c-1.5-2-2.2-5.2-1.4-7c0.3-0.8,0.9-1.1,1.7-1.1
			c0,0,0,0,0,0c0.3,0,0.6,0,0.9,0.1c0.1,0,0.2,0,0.3,0c0.3,0,0.5-0.1,0.7-0.3c0.2-0.3,0.3-0.7,0.2-1c-0.4-1.1,0-1.9,0.3-2.4
			C13,5.6,13.9,5.1,14.7,5.1 M14.7,4.1c-2.2,0-4.5,2.3-3.5,4.9C10.8,9,10.4,8.9,10,8.9c-4.1,0-3.7,6.8-0.8,10.1h13
			c4-5.4,1.6-13-2-13c-0.7,0-1.5,0.3-2.2,1C17.4,5,16.1,4.1,14.7,4.1L14.7,4.1z"/>
	</g>
</g>
<path class="st5" d="M19,14.8c0,0-0.9,2.2-1.8,3.2"/>
<path class="st5" d="M15,10c0.7,1.9,1.8,6,2.2,7.9"/>
<rect x="13" y="31" class="st0" width="18" height="1"/>
<path class="st5" d="M30,12c0,0-2.1,3.8-3,6"/>
<g>
	<g>
		<path class="st0" d="M39.8,19c-1,5.1-4.8,10.2-9.2,12.1C30.2,31.2,30,31.6,30,32v2h-8h-8v-2c0-0.4-0.2-0.8-0.6-0.9
			C9,29.2,5.1,24.1,4.2,19H22H39.8 M41,18L41,18L41,18z M41,18H22H3c0.6,5.7,4.8,11.8,10,14v3h9h9v-3C36.2,29.8,40.4,23.7,41,18
			L41,18z"/>
	</g>
</g>
<path class="st5" d="M12,14c1.6,0.9,3.5,2.1,5.2,3.9"/>
<path class="st5" d="M31,16c0,0-2.1,0.7-4,2"/>
</svg>
