<?xml version="1.0" encoding="utf-8"?>
<!-- Generator: Adobe Illustrator 19.2.0, SVG Export Plug-In . SVG Version: 6.00 Build 0)  -->
<svg version="1.1" id="Layer_1" xmlns="http://www.w3.org/2000/svg" xmlns:xlink="http://www.w3.org/1999/xlink" x="0px" y="0px"
	 viewBox="0 0 44 38" style="enable-background:new 0 0 44 38;" xml:space="preserve">
<style type="text/css">
	.st0{fill:#F8F8F8;}
	.st1{fill:#93959C;}
</style>
<g>
	<path class="st0" d="M22,33.5C14,33.5,7.5,27,7.5,19S14,4.5,22,4.5S36.5,11,36.5,19S30,33.5,22,33.5z"/>
	<path class="st1" d="M22,5c7.7,0,14,6.3,14,14s-6.3,14-14,14S8,26.7,8,19S14.3,5,22,5 M22,4C13.7,4,7,10.7,7,19s6.7,15,15,15
		s15-6.7,15-15S30.3,4,22,4L22,4z"/>
</g>
<g>
	<path class="st0" d="M22,28.3c-5.1,0-9.3-4.2-9.3-9.3s4.2-9.3,9.3-9.3s9.3,4.2,9.3,9.3S27.1,28.3,22,28.3z"/>
	<path class="st1" d="M22,10.2c4.9,0,8.8,4,8.8,8.8s-4,8.8-8.8,8.8s-8.8-4-8.8-8.8S17.1,10.2,22,10.2 M22,9.2
		c-5.4,0-9.8,4.4-9.8,9.8s4.4,9.8,9.8,9.8s9.8-4.4,9.8-9.8S27.4,9.2,22,9.2L22,9.2z"/>
</g>
<g>
	<path class="st0" d="M41.5,31.5c-0.6,0-1-0.4-1-1V14c0-0.6,0.4-1,1-1s1,0.4,1,1v16.5C42.5,31.1,42.1,31.5,41.5,31.5z"/>
	<g>
		<path class="st1" d="M41.5,13.5c0.3,0,0.5,0.2,0.5,0.5v16.5c0,0.3-0.2,0.5-0.5,0.5S41,30.8,41,30.5V14
			C41,13.7,41.2,13.5,41.5,13.5 M41.5,12.5c-0.8,0-1.5,0.7-1.5,1.5v16.5c0,0.8,0.7,1.5,1.5,1.5s1.5-0.7,1.5-1.5V14
			C43,13.2,42.3,12.5,41.5,12.5L41.5,12.5z"/>
	</g>
</g>
<g>
	<path class="st0" d="M42.3,22.5c-0.2,0-0.4,0-0.6,0c-1.6,0-3.3-3.6-3.3-7c0-4,2.5-6.9,4.1-7.8v14.9C42.5,22.5,42.4,22.5,42.3,22.5z
		"/>
	<path class="st1" d="M42.1,8.5V22c-0.1,0-0.2,0-0.3,0c-1.2,0-2.8-3.2-2.8-6.6C38.9,12.2,40.7,9.7,42.1,8.5 M43,7
		c-1.6,0.4-5,3.8-5,8.5c0,3.6,1.7,7.5,3.8,7.5c0.3,0,0.7,0.1,1,0.1c0.1,0,0.2,0,0.2,0V7L43,7z"/>
</g>
<g>
	<path class="st0" d="M3.5,31.5c-0.6,0-1-0.4-1-1v-13h2v13C4.5,31.1,4.1,31.5,3.5,31.5z"/>
	<g>
		<path class="st1" d="M4,17.5v13C4,30.8,3.8,31,3.5,31S3,30.8,3,30.5v-13H4 M5,17c0,0-0.2,0-1,0H3c-0.8,0-1,0-1,0v13.5
			C2,31.3,2.7,32,3.5,32S5,31.3,5,30.5V17L5,17z"/>
	</g>
</g>
<path class="st1" d="M5,7v1v7c0,0.8-0.7,1.5-1.5,1.5S2,15.8,2,15V8V7H1v8c0,1.4,1.1,2.5,2.5,2.5S6,16.4,6,15V7H5z"/>
<rect x="3" y="7" class="st1" width="1" height="7"/>
</svg>
