<?xml version="1.0" encoding="utf-8"?>
<!-- Generator: Adobe Illustrator 19.2.0, SVG Export Plug-In . SVG Version: 6.00 Build 0)  -->
<svg version="1.1" id="Layer_1" xmlns="http://www.w3.org/2000/svg" xmlns:xlink="http://www.w3.org/1999/xlink" x="0px" y="0px"
	 viewBox="0 0 44 38" style="enable-background:new 0 0 44 38;" xml:space="preserve">
<style type="text/css">
	.st0{fill:#93959C;}
	.st1{fill:#F8F8F8;}
	.st2{fill:none;stroke:#2E2F33;stroke-linecap:round;stroke-linejoin:round;stroke-miterlimit:10;}
	.st3{fill:#FFE17F;}
	.st4{fill:none;stroke:#93959C;stroke-linecap:round;stroke-linejoin:round;stroke-miterlimit:10;}
	.st5{fill:#FFFFFF;stroke:#93959C;stroke-linecap:round;stroke-linejoin:round;stroke-miterlimit:10;}
	.st6{fill:none;stroke:#231F20;stroke-linecap:round;stroke-linejoin:round;stroke-miterlimit:10;}
</style>
<g>
	<g>
		<path class="st0" d="M26.2,21l2.4,9.7l-13.8-2.4l5.7-7.3H26.2 M27,20h-7l-7,9l17,3L27,20L27,20z"/>
	</g>
</g>
<g>
	<g>
		<path class="st0" d="M28.7,7.3L26.2,17h-5.7l-5.7-7.3L28.7,7.3 M30,6L13,9l7,9h7L30,6L30,6z"/>
	</g>
</g>
<g>
	<g>
		<path class="st0" d="M40,13.2V19v5.7c-1.9-0.6-5.9-2.1-8.8-5.7C34.4,14.8,38.2,13.6,40,13.2 M41,12c0,0-6.3,0.4-11,7
			c4.2,6,11,7,11,7s0-5.2,0-7S41,12,41,12L41,12z"/>
	</g>
</g>
<g>
	<path class="st1" d="M17,29.5c-5.5,0-10.7-5.2-13.4-10.5C5.4,15.7,10.2,8.5,17,8.5c7.9,0,16.5,7.4,19.3,10.5
		C33.5,22.1,24.9,29.5,17,29.5z"/>
	<g>
		<path class="st0" d="M17,9c7.4,0,15.5,6.8,18.6,10C32.5,22.2,24.4,29,17,29c-5.2,0-10.2-4.9-12.9-10C6,15.7,10.6,9,17,9 M17,8
			C10.5,8,5.7,14.1,3,19c2.5,4.9,7.7,11,14,11c8.4,0,17.5-8.2,20-11C34.5,16.2,25.4,8,17,8L17,8z"/>
	</g>
</g>
<path class="st4" d="M12,10c2.3,2.1,3.6,10.1,1,14"/>
<circle class="st0" cx="9.9" cy="16.5" r="1.1"/>
</svg>
